<mxfile host="app.diagrams.net" modified="2023-09-11T08:57:36.860Z" agent="Mozilla/5.0 (Macintosh; Intel Mac OS X 10_15_7) AppleWebKit/537.36 (KHTML, like Gecko) Chrome/116.0.0.0 Safari/537.36" version="21.7.4" etag="hQILENU3Vr_BL1kGVdhR" type="github">
  <diagram name="第 1 页" id="Toz7Jd38wHQNtY9NH_d3">
    <mxGraphModel>
      <root>
        <mxCell id="0" />
        <mxCell id="1" parent="0" />
      </root>
    </mxGraphModel>
  </diagram>
</mxfile>
